<svg xmlns="http://www.w3.org/2000/svg" xml:space="preserve" width="2000" height="626" data-id="lg_TeckBhy3sApXwYVGG1" data-version="1" viewBox="0 0 2000 626"><g data-padding="20"><g fill="#fff"><path d="M697.039 322.468h28.402v-94.676h189.351v-18.935h-189.35V38.441h359.766v189.351h18.935V38.442h170.416v189.35h28.402V10.04H697.04Z"/><path d="M697.039 615.961V398.208h217.753v18.935h-189.35v170.416h359.766V398.208h18.935v189.35h170.416v-265.09h-75.74v189.35h-18.936v-189.35h-170.415v189.35H801.182v-18.935h189.35V322.468h-189.35v-18.936h189.35V133.117h-189.35v-18.935h208.286v189.35h170.415v-189.35h18.935v189.35h104.143v312.43Z"/></g><path fill="transparent" stroke="transparent" d="M687 0h626v626H687z"/></g></svg>